PathFileType	4	(X/Y/Z)	C:/Users/beibeiliu/ov580/test_trc/User1\sequence.38_training_dense_left.trc
DataRate	CameraRate	NumFrames	NumMarkers	Units	OrigDataRate	OrigDataStartFrame	OrigNumFrames
120	120	7	19	mm	120	251	500
Frame#	Time	ThumbCMC			ThumbMCP			ThumbIP			ThumbTip			IndexMCP			IndexPIP			IndexTip			MiddleMCP			MiddlePIP			MiddleTip			RingMCP			RingPIP			RingTip			PinkyMCP			PinkyPIP			PinkyTip			BackHand1			BackHand2			BackHand3	
		X0	Y0	Z0	X1	Y1	Z1	X2	Y2	Z2	X3	Y3	Z3	X4	Y4	Z4	X5	Y5	Z5	X6	Y6	Z6	X7	Y7	Z7	X8	Y8	Z8	X9	Y9	Z9	X10	Y10	Z10	X11	Y11	Z11	X12	Y12	Z12	X13	Y13	Z13	X14	Y14	Z14	X15	Y15	Z15	X16	Y16	Z16	X17	Y17	Z17	X18	Y18	Z18	
250	2.08333	-89.4345	-22.3098	48.5982	-68.1591	-42.8631	18.6706	-71.3935	-54.8978	-9.23146	-77.4381	-70.2779	-26.0086	-102.064	1.78787	-28.6828	-101.385	-7.27449	-56.3857	-89.1162	-25.3071	-83.0927	-130.874	-10.6627	-39.5952	-119.84	-17.1775	-68.2789	-107.382	-38.9329	-89.4537	-141.6	-30.8974	-32.2088	-131.071	-48.6524	-60.85	-109.474	-69.4773	-64.0274	-153.07	-53.1975	-17.022	-142.428	-65.591	-40.1279	-120.357	-76.8745	-53.0454	-151.906	-23.2364	26.9868	-153.227	-26.4208	60.7601	-126.483	-6.38359	46.1171	
251	2.09167	-85.9363	-21.881	51.3125	-68.4902	-42.9867	20.9723	-72.6166	-55.2841	-8.13494	-82.94	-69.5282	-28.0046	-104.16	-1.28567	-31.1878	-98.8274	-9.23277	-58.2295	-89.0319	-25.084	-78.9229	-129.484	-10.5756	-37.8902	-123.707	-18.3732	-67.403	-108.129	-38.1223	-90.4825	-143.904	-31.5813	-35.259	-131.231	-44.1824	-61.8998	-112.146	-69.1617	-68.8549	-151.933	-53.8343	-15.5661	-141.515	-63.7321	-40.123	-114.972	-76.4178	-53.1057	-151.877	-23.5322	25.0127	-154.917	-26.1914	61.3817	-129.981	-6.05237	44.3246	
252	2.1	-89.3724	-22.9607	51.1767	-69.0094	-41.3578	15.6904	-72.043	-54.4937	-8.33033	-82.1539	-71.8332	-28.5703	-104.45	-1.5468	-28.1417	-99.7882	-13.3955	-59.9801	-88.9502	-30.368	-80.8566	-132.687	-12.3208	-39.1241	-124.134	-17.432	-67.3274	-107.79	-38.2325	-94.5516	-144.549	-32.4366	-33.3322	-134.762	-42.5292	-60.2357	-118.31	-65.7817	-72.9806	-154.028	-56.9701	-19.4247	-135.765	-64.1626	-40.0748	-112.365	-75.2278	-49.8885	-151.718	-26.8413	27.4057	-155.139	-26.844	61.0577	-128.738	-5.32989	44.6912	
253	2.10833	-85.4073	-22.26	52.4404	-71.547	-42.5076	18.5654	-72.4244	-55.0335	-10.0209	-82.3227	-72.989	-30.1866	-107.701	-5.49477	-32.0555	-98.8278	-12.402	-56.5471	-86.7484	-29.9207	-77.6716	-132.538	-12.6854	-39.0312	-126.216	-16.2196	-66.2958	-112.366	-36.3948	-92.5426	-145.879	-35.0231	-35.6191	-137.191	-45.6883	-61.8642	-117.123	-66.4887	-76.7236	-152.562	-56.6611	-18.483	-135.512	-65.3358	-39.7555	-114.862	-76.2154	-51.6525	-154.107	-27.3526	24.4541	-156.883	-28.2071	58.3591	-125.735	-5.87141	43.1677	
254	2.11667	-89.493	-21.6859	47.4448	-69.5048	-42.4529	16.4389	-73.2621	-55.22	-8.4314	-86.5438	-72.8155	-30.2913	-104.862	-4.39808	-29.7785	-97.177	-13.9998	-57.6555	-84.4477	-35.3784	-78.263	-135.57	-14.4234	-34.2086	-128.527	-17.6586	-66.8227	-112.668	-37.1564	-96.2676	-146.75	-34.7668	-32.087	-134.82	-44.4877	-63.5853	-119.007	-65.4621	-77.9068	-153.359	-58.1432	-17.2549	-136.572	-63.1801	-37.8422	-111.148	-75.3569	-49.2126	-152.678	-27.0449	25.3225	-154.129	-29.3115	59.3725	-126.97	-6.39882	45.6061	
255	2.125	-90.833	-23.3824	47.7592	-71.6893	-42.9352	18.8137	-73.7514	-56.1911	-8.66518	-88.4637	-73.0281	-28.8446	-106.654	-5.38911	-29.4652	-99.495	-18.274	-59.528	-88.7586	-37.5135	-76.1048	-132.065	-12.4251	-37.0345	-130.547	-20.2286	-65.6884	-116.838	-38.2847	-93.8403	-144.852	-33.6666	-31.5445	-137.382	-46.9047	-63.4407	-118.257	-63.6584	-79.7658	-151.063	-55.8819	-19.289	-139.61	-65.7398	-38.7341	-111.489	-78.2057	-49.6691	-152.267	-28.3986	25.6954	-154.772	-29.0101	59.9624	-130.298	-8.19991	46.2295	
256	2.13333	-88.7431	-22.5589	50.8558	-70.7617	-42.8661	17.5079	-78.6555	-54.7904	-8.78072	-88.8207	-73.3491	-31.3959	-105.734	-5.41226	-28.3836	-96.4599	-16.9229	-60.3211	-86.6761	-39.4407	-77.111	-137.204	-16.8761	-35.3133	-131.795	-20.5384	-67.132	-118.095	-36.9113	-93.2267	-144.513	-35.4389	-34.9896	-138.158	-46.1988	-62.5235	-120.283	-64.0723	-77.9346	-152.363	-57.1072	-17.5516	-135.381	-62.2811	-38.0839	-111.636	-75.4457	-47.3524	-153.454	-30.4896	24.9347	-156.519	-28.9591	60.0064	-132.162	-8.87012	45.5483	
